<?xml version="1.0" encoding="UTF-8"?><svg id="Layer_1" xmlns="http://www.w3.org/2000/svg" viewBox="0 0 122 110.1"><defs><style>.cls-1{stroke-width:3px;}.cls-1,.cls-2{fill:none;stroke:#000;stroke-miterlimit:10;}.cls-2{stroke-width:3.5px;}</style></defs><path class="cls-1" d="M63.6,56.1h0"/><path class="cls-1" d="M86.9,98.5c-.9,.6-1.9,.7-2.8,.5s-1.8-.8-2.4-1.6l-25.2-34.7c2.3-1,5.3-2.9,7.1-4.6l24.4,35.2c1.1,1.7,.6,4-1.1,5.2Z"/><path class="cls-2" d="M69.3,40c0,6.9-2.6,13.2-6.9,18-1.7,1.9-3.6,3.5-5.7,4.8-4.2,2.6-9.1,4.2-14.4,4.2-14.9,0-27-12.1-27-27S27.3,13,42.3,13s27,12.1,27,27Z"/></svg>