<?xml version="1.0" encoding="UTF-8"?><svg id="Layer_1" xmlns="http://www.w3.org/2000/svg" viewBox="0 0 122 110.1"><defs><style>.cls-1{stroke:#000;stroke-miterlimit:10;stroke-width:3px;}</style></defs><path d="M33.5,57.1c1.1-.8,2.3-1.3,3.5-1.5,.4,0,.8-.1,1.2-.1,1.6,0,3.2,0,4.8,0,1.1,0,1.8,.8,1.8,1.9,0,3.9,0,7.9,0,11.8,0,6.4,0,12.9,0,19.3,0,1.2-.7,1.9-1.9,1.9-1.5,0-3.1,0-4.6,0-3.7,0-7.1-2.7-8-6.3,0-.3-.2-.4-.5-.4-1.2,0-2.5,0-3.7,0-2.9,0-5.2-2.3-5.2-5.2,0-3.7,0-7.3,0-11,0-3,2.3-5.3,5.3-5.3,1.3,0,2.5,0,3.8,0,0-.1,0-.3,0-.4,0-2.9,0-5.8,0-8.8,0-5.9,1.6-11.5,4.5-16.7,1.2-2.1,2.5-4.1,4.2-5.9,1-1.1,2-2.1,3.1-3.1,.7-.6,1.4-1.2,2.1-1.8,3.7-2.8,7.8-4.9,12.4-6,4-1,8.1-1.4,12.2-1,6.3,.6,11.9,2.8,17,6.5,2,1.4,3.8,3.1,5.5,4.9,4.6,5.1,7.4,11,8.6,17.8,.3,2,.5,3.9,.5,5.9,0,2.7,0,5.4,0,8.1s0,.3,0,.5c.1,0,.3,0,.4,0,1.1,0,2.3,0,3.4,0,3,0,5.3,2.3,5.3,5.2,0,3.7,0,7.4,0,11.1,0,2.9-2.3,5.2-5.3,5.2-1.3,0-2.7,0-4,0-.2,.6-.4,1.1-.6,1.6-1.5,3.2-4.1,4.9-7.6,5.1-1.6,0-3.1,0-4.7,0-.4,0-.8-.1-1.1-.3-.4-.3-.7-.9-.7-1.5,0-4.5,0-9.1,0-13.6,0-5.8,0-11.6,0-17.5,0-1.3,.7-2,2-2,1.4,0,2.7,0,4.1,0,1.8,0,3.4,.4,4.9,1.4,0,0,.1,0,.2,.1,0,0,0-.1,0-.2,0-2.4,0-4.8-.2-7.2-.4-3.6-1.4-6.9-3-10.1-2.6-5.2-6.3-9.4-11.2-12.6-3.7-2.4-7.7-3.9-12-4.6-5.8-.9-11.4-.3-16.9,2-5.9,2.4-10.6,6.3-14.2,11.6-2.8,4.1-4.4,8.6-5.1,13.4-.3,2.1-.3,4.2-.3,6.3,0,.5,0,1,0,1.5Zm55.2,29.8c1,0,1.9,0,2.9,0,2.7,0,4.8-2.3,4.8-5,0-3.6,0-7.2,0-10.8,0-2.4,0-4.8,0-7.2,0-2.1-1.4-4-3.4-4.7-1.4-.5-2.8-.1-4.3-.3v27.8Zm-47.5,0v-27.9c-1,0-1.9,0-2.8,0-2.7,0-4.9,2.2-4.9,4.9,0,5.9,0,11.9,0,17.8,0,2.4,1.5,4.4,3.8,4.9,1.3,.3,2.6,.2,3.9,.2Zm58.8-21.2v14.4c1.4,0,2.7,0,4,0,.9,0,1.5-.8,1.5-1.7,0-3.7,0-7.3,0-11,0-.5-.2-1-.6-1.4-.4-.3-.8-.4-1.2-.4-1.2,0-2.4,0-3.7,0Zm-70,14.4v-14.4c0,0-.2,0-.3,0-1.2,0-2.3,0-3.5,0-1.1,0-1.8,.7-1.8,1.8,0,3.6,0,7.2,0,10.8,0,1.2,.7,1.9,1.9,1.9,1.1,0,2.2,0,3.3,0,.1,0,.2,0,.4,0Z"/><path class="cls-1" d="M87,96.9v-10s0,10,0,10Z"/><path class="cls-1" d="M72.6,96.9c5.4,0,10.8,0,16.2,0"/><circle class="cls-1" cx="72.6" cy="96.9" r="2.6"/></svg>