<?xml version="1.0" encoding="UTF-8"?><svg id="Layer_1" xmlns="http://www.w3.org/2000/svg" viewBox="0 0 122 110.1"><defs><style>.cls-1{stroke-width:2px;}.cls-1,.cls-2{fill:none;stroke:#000;stroke-miterlimit:10;}.cls-2{stroke-width:3.2px;}</style></defs><g><path class="cls-2" d="M20.1,52.7c4.7,6.3,9.1,9.6,13.3,9.1,6-.7,7.7-9,13.2-9s6.6,9,13.2,9,6.6-9,13.2-9,7.2,8.3,13.2,9c3.8,.5,8.1-2.2,13-8.7-6.1-12.1-7.1-14.2-13.2-26.2H33.2c-6,11.8-7.1,14-13.1,25.8Z"/><line class="cls-2" x1="90.7" y1="69.1" x2="90.7" y2="60.9"/><polyline class="cls-2" points="30.3 61.5 30.3 97.8 63.7 97.8"/></g><g><path class="cls-1" d="M90.7,83.9s-6.5,9.1-14.6,9.1-14.6-9.1-14.6-9.1c0,0,6.5-9.1,14.6-9.1s14.6,9.1,14.6,9.1Z"/><path class="cls-1" d="M67.5,73c2.4-1.9,5.4-3,8.7-3s5.6,.9,7.8,2.4"/><path class="cls-1" d="M69.1,74.8c1.9-1.5,4.4-2.4,7-2.4s4.6,.7,6.4,2"/><path class="cls-1" d="M67.5,94.8c2.4,1.9,5.4,3,8.7,3s5.6-.9,7.8-2.4"/><path class="cls-1" d="M69.1,93c1.9,1.5,4.4,2.4,7,2.4s4.6-.7,6.4-2"/><circle class="cls-1" cx="76.2" cy="83.9" r="5.4"/><path class="cls-1" d="M76.8,83.8h1.2c0,1.2-1.1,2.1-2.3,1.7s-1-.6-1.1-1.1c-.4-1.2,.5-2.3,1.7-2.3s.6,0,.9,.2l-.5,1.1c-.1,.2,0,.4,.3,.4Z"/></g></svg>