<?xml version="1.0" encoding="UTF-8"?><svg id="a" xmlns="http://www.w3.org/2000/svg" viewBox="0 0 1280 742.26"><defs><style>.b{fill:#1b2748;}</style></defs><g><path class="b" d="M468.17,527.77h-148.99v-2.19l1.28-.73c2.19-1.46,3.9-3.71,5.12-6.76,.85-2.07,1.28-4.63,1.28-7.68,0-10.24-5.66-23.34-17-39.3L138.57,230.34l-41.5,45.7v203.28c1.1,15.35,4.51,26.93,10.24,34.73,4.14,5.85,8.47,9.32,12.98,10.42l2.37,.73v2.2H0v-2.2l2.37-.73c4.39-1.1,8.71-4.51,12.98-10.24,5.61-7.56,8.96-19.14,10.06-34.74V48.08c-.98-14.99-4.15-26.32-9.51-34C11.52,7.98,7.06,4.27,2.56,2.93L0,2.19V0H122.66V2.19l-2.37,.55c-4.51,1.22-8.84,4.69-12.98,10.42-5.73,7.92-9.14,19.56-10.24,34.92v217.18L286.46,56.86c10.48-11.94,17.67-21.63,21.57-29.07,3.17-5.97,4.75-11.15,4.75-15.54,0-.25-.03-.92-.09-2.01-.06-1.09-.43-2.25-1.1-3.47-.67-1.22-1.4-2.16-2.19-2.83-.8-.67-1.5-1.13-2.1-1.37l-.92-.37V0h72.4V2.19l-7.13,2.38c-4.75,1.59-11.09,4.39-19.01,8.41-7.92,4.02-16.76,9.57-26.51,16.63-9.75,7.07-19.69,16.15-29.8,27.24l-108.41,119.19,209.87,295.06c8.17,10.72,16.39,19.62,24.68,26.69,8.29,7.07,15.87,12.65,22.76,16.73,6.88,4.09,12.46,6.92,16.73,8.5l6.21,2.56v2.19Z"/><path class="b" d="M579.62,527.77c-24.62,0-43.88-5.12-57.77-15.36-15.72-11.94-23.58-30.04-23.58-54.29,0-3.17,.12-6.46,.36-9.87,2.32-24.98,14.26-46.62,35.83-64.9,17.18-14.38,39.97-26.33,68.37-35.83,26.81-8.89,53.63-14.81,80.44-17.73v-56.12c0-16.09-1.95-28.24-5.85-36.47-3.9-8.23-9.81-13.86-17.73-16.91-7.92-3.04-17.91-4.57-29.98-4.57-5.97,.49-11.82,1.4-17.55,2.74-7.19,3.78-13.13,9.6-17.82,17.46-4.69,7.86-8.38,16.12-11.06,24.77-2.68,8.65-4.51,16.09-5.48,22.3l-1.65,9.32-43.88-16.46c8.17-20.59,22.12-37.08,41.86-49.45,19.75-12.37,41.99-18.55,66.73-18.55,14.62,0,28.76,2.37,42.41,7.13l1.83,.55c13.4,5,25.11,11.7,35.1,20.11l7.49,6.95c.61,.49,1.16,1.03,1.65,1.65,3.9,4.02,7.37,8.35,10.42,12.98l1.28,2.19c3.17,4.75,5.48,9.08,6.95,12.98,3.41,8.04,5.61,16.15,6.58,24.32,0,1.46,.12,2.8,.36,4.02v170.01c0,18.16,2.99,31.93,8.96,41.32,4.39,6.7,9.08,10.85,14.08,12.43l2.56,.73v2.2h-52.28c-8.17,0-15.63-1.98-22.4-5.94-6.76-3.96-12.16-9.29-16.18-16-17.67,6.7-38.21,12.37-61.61,17-18.04,3.54-34.18,5.3-48.44,5.3Zm46.98-14.44c5.12,0,10.42-.49,15.9-1.46,16.94-4.02,31.56-8.34,43.88-12.98-2.07-5.12-3.11-10.66-3.11-16.63v-145.15c-11.33,1.34-25.84,3.9-43.51,7.68-14.01,3.78-26.63,12.25-37.84,25.41-15.48,18.04-23.22,44-23.22,77.88,0,4.39,.12,8.96,.37,13.71,2.19,34.37,18.03,51.55,47.53,51.55Z"/><path class="b" d="M949.37,528.5h-122.48v-2.19l2.19-.55c4.51-1.34,8.84-4.81,12.98-10.42,5.73-7.8,9.14-19.38,10.24-34.73V89.76c0-14.74-1.28-26.69-3.84-35.83-1.95-7.43-4.45-12.86-7.49-16.27-2.32-2.56-4.45-4.02-6.4-4.39l-1.1-.18v-3.11c6.7,0,12.98-.18,18.83-.55,22.3-1.58,39.67-5.48,52.1-11.7,9.14-4.63,15.18-9.32,18.1-14.08l1.46-2.56V480.42c.61,8.66,1.83,15.79,3.66,21.39,1.83,5.61,3.96,10.08,6.4,13.44,2.43,3.35,4.84,5.82,7.22,7.4,2.37,1.59,4.3,2.62,5.76,3.11l2.37,.55v2.19Z"/><path class="b" d="M1079.09,527.77c-24.62,0-43.88-5.12-57.77-15.36-15.72-11.94-23.58-30.04-23.58-54.29,0-3.17,.12-6.46,.36-9.87,2.32-24.98,14.26-46.62,35.83-64.9,17.18-14.38,39.97-26.33,68.37-35.83,26.81-8.89,53.63-14.81,80.44-17.73v-56.12c0-16.09-1.95-28.24-5.85-36.47-3.9-8.23-9.81-13.86-17.73-16.91-7.92-3.04-17.91-4.57-29.98-4.57-5.97,.49-11.82,1.4-17.55,2.74-7.19,3.78-13.13,9.6-17.82,17.46-4.69,7.86-8.38,16.12-11.06,24.77-2.68,8.65-4.51,16.09-5.48,22.3l-1.65,9.32-43.88-16.46c8.17-20.59,22.12-37.08,41.86-49.45,19.75-12.37,41.99-18.55,66.73-18.55,14.62,0,28.76,2.37,42.41,7.13l1.83,.55c13.4,5,25.11,11.7,35.1,20.11l7.49,6.95c.61,.49,1.16,1.03,1.65,1.65,3.9,4.02,7.37,8.35,10.42,12.98l1.28,2.19c3.17,4.75,5.48,9.08,6.95,12.98,3.41,8.04,5.61,16.15,6.58,24.32,0,1.46,.12,2.8,.36,4.02v170.01c0,18.16,2.99,31.93,8.96,41.32,4.39,6.7,9.08,10.85,14.08,12.43l2.56,.73v2.2h-52.28c-8.17,0-15.63-1.98-22.4-5.94-6.76-3.96-12.16-9.29-16.18-16-17.67,6.7-38.21,12.37-61.61,17-18.04,3.54-34.18,5.3-48.44,5.3Zm46.98-14.44c5.12,0,10.42-.49,15.9-1.46,16.94-4.02,31.56-8.34,43.88-12.98-2.07-5.12-3.11-10.66-3.11-16.63v-145.15c-11.33,1.34-25.84,3.9-43.51,7.68-14.01,3.78-26.63,12.25-37.84,25.41-15.48,18.04-23.22,44-23.22,77.88,0,4.39,.12,8.96,.37,13.71,2.19,34.37,18.03,51.55,47.53,51.55Z"/></g><g><path class="b" d="M368.08,698.41c-5.33,28.03-29.44,42.44-53.25,42.44-25.68,0-51.06-16.92-51.06-51.68s20.21-59.67,54.19-59.67c13,0,27.09,4.23,37.9,4.23,2.82,0,5.48-.31,7.83-1.1-1.26,9.4-6.73,12.38-14.25,12.38-12.22,0-29.91-7.83-43.85-7.83-19.1,0-34.61,11.59-34.61,36.49,0,39,23.96,56.07,48.39,56.07,19.89,0,40.25-11.43,48.24-31.48l.47,.16Z"/><path class="b" d="M469.71,721.28c0,11.59,3.29,19.1,16.76,19.1h-19.1c-8.15,0-10.18-3.92-10.18-11.75v-11.43c-3.92,16.29-18.79,24.59-32.42,24.59-12.84,0-24.43-7.36-24.43-22.24,0-33.98,55.6-28.97,56.85-43.85-.63-11.59-6.42-17.38-21.93-17.38-6.42,0-14.56,1.1-24.74,2.97l-.32-1.41c12.38-2.5,23.49-4.7,32.73-4.7,16.45,0,26.78,7.05,26.78,32.42v33.67Zm-12.53-40.88c-12.69,11.59-44.16,7.67-44.16,34.3,0,13.94,9.71,20.83,20.05,20.83,11.59,0,24.12-8.93,24.12-26.62v-28.5Z"/><path class="b" d="M589.66,721.28c0,11.59,3.29,19.1,16.6,19.1h-19.1c-8.14,0-10.02-3.92-10.02-11.9v-42.76c0-18.17-11.43-27.41-23.02-27.41s-24.28,9.86-24.28,29.6v33.36c0,11.59,3.44,19.1,16.76,19.1h-29.13v-65.46c0-11.59-3.29-19.1-16.76-19.1h29.13v18.32c4.7-13.31,17.07-20.05,29.44-20.05,15.19,0,30.22,10.34,30.22,31.64h.16v35.55Z"/><path class="b" d="M714.31,721.28c0,11.59,3.29,19.1,16.76,19.1h-19.11c-8.14,0-10.18-3.92-10.18-11.9v-10.34c-4.39,15.82-17.7,23.65-31.79,23.65-18.79,0-38.68-14.25-38.68-41.82,0-32.57,22.23-46.04,42.75-46.04,10.96,0,21.46,3.92,27.72,10.65v-35.24c0-11.59-3.29-19.11-16.76-19.11h29.29v111.04Zm-12.53-34.45c0-20.05-13.16-30.38-26.78-30.38-14.72,0-30.22,12.22-30.22,38.21,0,28.97,15.5,42.13,30.22,42.13,13.62,0,26.78-11.12,26.78-31.01v-18.95Z"/><path class="b" d="M838.65,708.75c-4.54,22.39-23.02,33.51-41.19,33.51-20.67,0-41.18-14.25-41.18-43.07,0-30.54,20.51-44.16,40.09-44.16,18.01,0,35.39,11.43,35.39,31.95,0,16.6-15.03,25.21-31.17,25.21-13.16,0-27.25-5.64-34.77-17.07,2.35,25.99,18.63,36.8,35.39,36.8,15.35,0,31.01-8.93,36.96-23.34l.47,.16Zm-45.73-51.37c-13.62,0-27.56,10.18-27.41,33.67,4.7,8.62,17.54,14.25,29.44,14.25,12.53,0,24.12-6.26,24.12-21.92,0-16.45-13-26-26.15-26Z"/><path class="b" d="M887.5,721.28c0,11.59,3.45,19.1,16.76,19.1h-29.13v-111.03c0-11.59-3.29-19.11-16.76-19.11h29.13v111.04Z"/><path class="b" d="M999.47,721.28c0,11.59,3.29,19.1,16.76,19.1h-19.1c-8.15,0-10.18-3.92-10.18-11.75v-11.43c-3.92,16.29-18.79,24.59-32.42,24.59-12.84,0-24.43-7.36-24.43-22.24,0-33.98,55.6-28.97,56.85-43.85-.63-11.59-6.42-17.38-21.93-17.38-6.42,0-14.56,1.1-24.74,2.97l-.32-1.41c12.38-2.5,23.49-4.7,32.73-4.7,16.45,0,26.78,7.05,26.78,32.42v33.67Zm-12.53-40.88c-12.69,11.59-44.16,7.67-44.16,34.3,0,13.94,9.71,20.83,20.05,20.83,11.59,0,24.12-8.93,24.12-26.62v-28.5Z"/></g></svg>