<?xml version="1.0" encoding="UTF-8"?><svg fill="current" id="a" xmlns="http://www.w3.org/2000/svg" viewBox="0 0 880.16 1280"><defs></defs><g><g><path class="b" d="M645.24,700.63c-11.64-13.35-24.26-26.2-37.58-38.95-33.36-31.94-68.76-62.95-95.56-100.88-36.57-51.76-48.22-119.38-46.5-181.9-.27,9.89-22.75,39.08-27.82,48.28-12.52,22.69-21.27,47.43-24.47,73.2-9.35,75.44,30.23,153.26,83.62,204.61,32.18,30.95,71.72,53.3,102.2,86.2,35.75,38.57,58.76,90.64,60.64,143.41,2.06,57.69-13.47,112.48-62.93,146.04-41.62,28.24-96.04,39.99-145.8,34.67-84.3-9.01-156.36-66.08-190.4-142.84-34.1-76.91-26.13-171,20.45-241.08-49.22,55.77-71.49,134.32-58.86,207.63,20.11,116.75,126.32,208.51,245.08,209.46,87.3,.7,170.86-43.17,216.35-110.26,43.56-64.25,44.81-158.21,23.04-230.64-12.61-41.96-34.35-75.84-61.45-106.95Z"/><path class="b" d="M583.61,194.28s-129.81,100.4-29.41,264.16c31.23,40.15,73.17,71.38,105.11,111.23,34.97,43.63,45.44,93.76,23.7,146.68-11.68,28.43-30.01,53.59-48.93,77.81,6.63-8.48,26.42-16.44,35.99-24.37,12.8-10.6,24.39-22.64,34.53-35.8,20.9-27.14,35.36-58.92,42.96-92.28,16.99-74.59-.54-145.64-58.3-197.62-83.67-75.3-132.43-83.67-105.66-249.81Z"/></g><g><path class="b" d="M232.47,634.38c1.58-4.01,2.4-8.58,4.87-11.94,14.09-19.2,28.48-38.17,43.01-57.03,1.96-2.54,5.05-4.82,8.07-5.77,4.03-1.26,7.78,.71,10.14,4.37,2.62,4.06,2.27,8.22-.56,12.01-7.26,9.76-14.64,19.43-21.97,29.13-7.64,10.12-15.26,20.24-22.92,30.35-5.65,7.46-9.19,8.29-17.48,4.2-1.06-1.77-2.11-3.54-3.17-5.32Z"/><path class="b" d="M218.02,449.68c-.9,.22-2.7,.83-4.54,1.09-24.48,3.46-48.95,6.9-73.44,10.28-7.6,1.05-13.01-2.65-13.58-9.05-.47-5.32,3-10.15,8.69-10.98,25.82-3.76,51.66-7.38,77.52-10.87,5.38-.73,9.83,2.49,11.13,7.18,1.33,4.78-.62,9.47-5.77,12.35Z"/><path class="b" d="M371.55,223.27c-.28-1.22-.87-3.19-1.16-5.2-3.42-24.25-6.8-48.51-10.17-72.77-1.06-7.61,2.02-12.64,8.25-13.64,6.37-1.03,11.09,3.08,12.19,10.79,3.46,24.42,6.9,48.84,10.29,73.27,1.01,7.29-2.07,12.23-8.08,13.31-4.78,.85-8.35-.97-11.32-5.76Z"/><path class="b" d="M256.4,304.19c-3.36,1.85-7.38,1.77-10.98-.94-20.82-15.62-41.62-31.28-62.3-47.09-4.98-3.81-5.4-9.94-1.66-14.57,3.72-4.6,9.6-5.08,15.11-.94,17.81,13.36,35.55,26.81,53.32,40.22,2.73,2.06,5.62,3.96,8.17,6.23,5.52,4.91,4.94,13-1.66,17.09Z"/><path class="b" d="M179.59,344.94c1.36-.04,4.3-.71,6.94-.08,11.17,2.64,22.28,5.59,33.37,8.59,6.67,1.8,9.87,6.73,8.52,12.54-1.4,6.03-6.78,9.11-13.63,7.41-11.14-2.77-22.24-5.74-33.34-8.71-4.52-1.21-7.57-3.98-8.15-8.84-.52-4.33,1.15-7.68,6.3-10.91Z"/><path class="b" d="M291.11,233.58c-2.98-5.01-6.06-9.96-8.93-15.03-3.17-5.62-1.89-11.33,3.03-14.4,4.83-3.02,10.97-1.79,14.33,3.57,6.38,10.16,12.53,20.47,18.42,30.92,3.1,5.5,1.18,11.49-3.81,14.26-5.07,2.81-10.62,1.19-14.07-4.32-3.1-4.94-5.99-10-8.98-15Z"/><path class="b" d="M218.8,514.01c4.86-2.9,9.69-5.85,14.59-8.68,6.04-3.49,12.15-2.22,15.22,3.06,2.97,5.11,1.27,11.02-4.44,14.48-9.68,5.87-19.42,11.64-29.2,17.33-6.01,3.49-12.22,2.13-15.25-3.09-3.07-5.29-1.19-11,4.91-14.72,4.69-2.85,9.42-5.63,14.14-8.44l.04,.06Z"/></g></g><g><path class="b" d="M438.35,1280h-35.55C180.7,1280,0,1099.3,0,877.2V402.8C0,180.7,180.7,0,402.8,0h35.55c222.11,0,402.8,180.7,402.8,402.8v474.39c0,222.11-180.7,402.8-402.8,402.8ZM402.8,6.56C184.32,6.56,6.56,184.32,6.56,402.8v474.39c0,218.49,177.76,396.24,396.24,396.24h35.55c218.49,0,396.24-177.76,396.24-396.24V402.8C834.6,184.32,656.84,6.56,438.35,6.56h-35.55Z"/><path class="b" d="M477.36,1280h-35.55c-222.11,0-402.8-180.7-402.8-402.8V402.8C39.01,180.7,219.7,0,441.81,0h35.55c222.11,0,402.8,180.7,402.8,402.8v474.39c0,222.11-180.7,402.8-402.8,402.8ZM441.81,6.56C223.32,6.56,45.57,184.32,45.57,402.8v474.39c0,218.49,177.76,396.24,396.24,396.24h35.55c218.49,0,396.24-177.76,396.24-396.24V402.8C873.6,184.32,695.85,6.56,477.36,6.56h-35.55Z"/></g></svg>