<?xml version="1.0" encoding="UTF-8"?><svg id="Layer_1" xmlns="http://www.w3.org/2000/svg" viewBox="0 0 122 110.1"><defs><style>.cls-1,.cls-2{stroke-width:3px;}.cls-1,.cls-2,.cls-3,.cls-4{fill:none;stroke:#000;}.cls-1,.cls-3,.cls-4{stroke-miterlimit:10;}.cls-2{stroke-dasharray:0 0 0 0 0 7.8 0 0;stroke-linecap:round;stroke-linejoin:round;}.cls-3{stroke-width:1px;}.cls-4{stroke-width:2px;}</style></defs><polygon class="cls-1" points="96.7 36.2 25.2 36.2 27.2 22.8 94.7 22.8 96.7 36.2"/><circle class="cls-1" cx="61.6" cy="66.8" r="26.8"/><line class="cls-1" x1="24.7" y1="36.7" x2="36.1" y2="58.5"/><line class="cls-1" x1="96.7" y1="36.2" x2="87" y2="58.5"/><path class="cls-2" d="M61.6,80.6c-7.6,0-13.7-6.2-13.7-13.7s6.2-13.7,13.7-13.7,13.7,6.2,13.7,13.7-6.2,13.7-13.7,13.7Z"/><path class="cls-4" d="M61.6,75.6c-4.8,0-8.8-3.9-8.8-8.8s3.9-8.8,8.8-8.8,8.8,3.9,8.8,8.8-3.9,8.8-8.8,8.8Z"/><circle class="cls-3" cx="61.6" cy="66.8" r="3.8"/></svg>